{
	"patcher" : 	{
		"fileversion" : 1,
		"appversion" : 		{
			"major" : 8,
			"minor" : 1,
			"revision" : 8,
			"architecture" : "x64",
			"modernui" : 1
		}
,
		"classnamespace" : "box",
		"rect" : [ 184.0, 302.0, 660.0, 397.0 ],
		"bglocked" : 0,
		"openinpresentation" : 1,
		"default_fontsize" : 12.0,
		"default_fontface" : 0,
		"default_fontname" : "Arial",
		"gridonopen" : 1,
		"gridsize" : [ 15.0, 15.0 ],
		"gridsnaponopen" : 1,
		"objectsnaponopen" : 1,
		"statusbarvisible" : 2,
		"toolbarvisible" : 1,
		"lefttoolbarpinned" : 0,
		"toptoolbarpinned" : 0,
		"righttoolbarpinned" : 0,
		"bottomtoolbarpinned" : 0,
		"toolbars_unpinned_last_save" : 0,
		"tallnewobj" : 0,
		"boxanimatetime" : 200,
		"enablehscroll" : 1,
		"enablevscroll" : 1,
		"devicewidth" : 0.0,
		"description" : "",
		"digest" : "",
		"tags" : "",
		"style" : "",
		"subpatcher_template" : "",
		"assistshowspatchername" : 0,
		"boxes" : [ 			{
				"box" : 				{
					"coll_data" : 					{
						"count" : 13,
						"data" : [ 							{
								"key" : 1,
								"value" : [ 69, 100, 500 ]
							}
, 							{
								"key" : 2,
								"value" : [ 69, 100, 500 ]
							}
, 							{
								"key" : 3,
								"value" : [ 76, 100, 500 ]
							}
, 							{
								"key" : 4,
								"value" : [ 76, 100, 500 ]
							}
, 							{
								"key" : 5,
								"value" : [ 74, 100, 500 ]
							}
, 							{
								"key" : 6,
								"value" : [ 72, 100, 500 ]
							}
, 							{
								"key" : 7,
								"value" : [ 71, 100, 500 ]
							}
, 							{
								"key" : 8,
								"value" : [ 69, 100, 500 ]
							}
, 							{
								"key" : 9,
								"value" : [ 67, 100, 500 ]
							}
, 							{
								"key" : 10,
								"value" : [ 69, 100, 500 ]
							}
, 							{
								"key" : 11,
								"value" : [ 71, 100, 500 ]
							}
, 							{
								"key" : 12,
								"value" : [ 72, 100, 500 ]
							}
, 							{
								"key" : 13,
								"value" : [ 74, 100, 500 ]
							}
 ]
					}
,
					"id" : "obj-27",
					"maxclass" : "newobj",
					"numinlets" : 1,
					"numoutlets" : 4,
					"outlettype" : [ "", "", "", "" ],
					"patching_rect" : [ 327.0, 185.5, 76.0, 22.0 ],
					"saved_object_attributes" : 					{
						"embed" : 1,
						"precision" : 6
					}
,
					"text" : "coll tune2.txt"
				}

			}
, 			{
				"box" : 				{
					"coll_data" : 					{
						"count" : 8,
						"data" : [ 							{
								"key" : 1,
								"value" : [ 76, 100, 500 ]
							}
, 							{
								"key" : 2,
								"value" : [ 75, 100, 500 ]
							}
, 							{
								"key" : 3,
								"value" : [ 76, 100, 500 ]
							}
, 							{
								"key" : 4,
								"value" : [ 75, 100, 500 ]
							}
, 							{
								"key" : 5,
								"value" : [ 76, 100, 500 ]
							}
, 							{
								"key" : 6,
								"value" : [ 71, 100, 500 ]
							}
, 							{
								"key" : 7,
								"value" : [ 74, 100, 500 ]
							}
, 							{
								"key" : 8,
								"value" : [ 72, 100, 500 ]
							}
 ]
					}
,
					"id" : "obj-26",
					"maxclass" : "newobj",
					"numinlets" : 1,
					"numoutlets" : 4,
					"outlettype" : [ "", "", "", "" ],
					"patching_rect" : [ 327.0, 154.0, 76.0, 22.0 ],
					"saved_object_attributes" : 					{
						"embed" : 1,
						"precision" : 6
					}
,
					"text" : "coll tune1.txt"
				}

			}
, 			{
				"box" : 				{
					"fontname" : "Arial",
					"fontsize" : 13.0,
					"id" : "obj-1",
					"linecount" : 4,
					"maxclass" : "comment",
					"numinlets" : 1,
					"numoutlets" : 0,
					"patching_rect" : [ 431.0, 263.0, 186.0, 65.0 ],
					"presentation" : 1,
					"presentation_linecount" : 4,
					"presentation_rect" : [ 431.0, 263.0, 186.0, 65.0 ],
					"text" : "5. Repeat steps 2-4 for different continuations to the melody, or repeat steps 1-4 for different melodies."
				}

			}
, 			{
				"box" : 				{
					"fontname" : "Arial",
					"fontsize" : 13.0,
					"id" : "obj-2",
					"linecount" : 2,
					"maxclass" : "comment",
					"numinlets" : 1,
					"numoutlets" : 0,
					"patching_rect" : [ 431.0, 228.0, 154.0, 36.0 ],
					"presentation" : 1,
					"presentation_linecount" : 2,
					"presentation_rect" : [ 431.0, 228.0, 154.0, 36.0 ],
					"text" : "4. Click on the notes you think best fit the melody."
				}

			}
, 			{
				"box" : 				{
					"fontname" : "Arial",
					"fontsize" : 13.0,
					"id" : "obj-3",
					"linecount" : 4,
					"maxclass" : "comment",
					"numinlets" : 1,
					"numoutlets" : 0,
					"patching_rect" : [ 431.0, 164.0, 213.0, 65.0 ],
					"presentation" : 1,
					"presentation_linecount" : 4,
					"presentation_rect" : [ 431.0, 164.0, 213.0, 65.0 ],
					"text" : "3. Listen to the melody and watch while it is played on the keyboard. When it stops, decide which note would best fit the melody."
				}

			}
, 			{
				"box" : 				{
					"fontname" : "Arial",
					"fontsize" : 13.0,
					"id" : "obj-4",
					"linecount" : 2,
					"maxclass" : "comment",
					"numinlets" : 1,
					"numoutlets" : 0,
					"patching_rect" : [ 431.0, 128.0, 170.0, 36.0 ],
					"presentation" : 1,
					"presentation_linecount" : 2,
					"presentation_rect" : [ 431.0, 128.0, 170.0, 36.0 ],
					"text" : "2. Click on the toggle switch under \"click to start.\""
				}

			}
, 			{
				"box" : 				{
					"fontname" : "Arial",
					"fontsize" : 12.0,
					"id" : "obj-5",
					"maxclass" : "comment",
					"numinlets" : 1,
					"numoutlets" : 0,
					"patching_rect" : [ 39.0, 42.0, 92.0, 20.0 ],
					"presentation" : 1,
					"presentation_rect" : [ 51.0, 78.0, 92.0, 20.0 ],
					"text" : "select music"
				}

			}
, 			{
				"box" : 				{
					"fontname" : "Arial",
					"fontsize" : 12.0,
					"id" : "obj-6",
					"maxclass" : "message",
					"numinlets" : 2,
					"numoutlets" : 1,
					"outlettype" : [ "" ],
					"patching_rect" : [ 204.0, 142.0, 83.0, 22.0 ],
					"presentation" : 1,
					"presentation_rect" : [ 51.0, 140.0, 85.0, 22.0 ],
					"text" : "refer tune2.txt"
				}

			}
, 			{
				"box" : 				{
					"fontname" : "Arial",
					"fontsize" : 12.0,
					"id" : "obj-7",
					"maxclass" : "message",
					"numinlets" : 2,
					"numoutlets" : 1,
					"outlettype" : [ "" ],
					"patching_rect" : [ 108.0, 142.0, 83.0, 22.0 ],
					"presentation" : 1,
					"presentation_rect" : [ 51.0, 112.0, 85.0, 22.0 ],
					"text" : "refer tune1.txt"
				}

			}
, 			{
				"box" : 				{
					"id" : "obj-8",
					"maxclass" : "toggle",
					"numinlets" : 1,
					"numoutlets" : 1,
					"outlettype" : [ "int" ],
					"parameter_enable" : 0,
					"patching_rect" : [ 55.0, 76.0, 30.0, 30.0 ],
					"presentation" : 1,
					"presentation_rect" : [ 152.0, 123.0, 30.0, 30.0 ]
				}

			}
, 			{
				"box" : 				{
					"fontname" : "Arial",
					"fontsize" : 12.0,
					"id" : "obj-9",
					"maxclass" : "newobj",
					"numinlets" : 3,
					"numoutlets" : 0,
					"patching_rect" : [ 69.0, 509.0, 61.0, 22.0 ],
					"presentation" : 1,
					"presentation_rect" : [ 48.0, 281.0, 61.0, 22.0 ],
					"text" : "noteout 1"
				}

			}
, 			{
				"box" : 				{
					"fontname" : "Arial",
					"fontsize" : 12.0,
					"id" : "obj-10",
					"maxclass" : "newobj",
					"numinlets" : 3,
					"numoutlets" : 2,
					"outlettype" : [ "float", "float" ],
					"patching_rect" : [ 69.0, 474.0, 111.0, 22.0 ],
					"presentation" : 1,
					"presentation_rect" : [ 48.0, 251.0, 111.0, 22.0 ],
					"text" : "makenote 100 500"
				}

			}
, 			{
				"box" : 				{
					"hkeycolor" : [ 0.501960784313725, 0.501960784313725, 0.501960784313725, 1.0 ],
					"id" : "obj-11",
					"maxclass" : "kslider",
					"numinlets" : 2,
					"numoutlets" : 2,
					"outlettype" : [ "int", "int" ],
					"parameter_enable" : 0,
					"patching_rect" : [ 69.0, 408.0, 336.0, 53.0 ],
					"presentation" : 1,
					"presentation_rect" : [ 48.0, 176.0, 336.0, 53.0 ],
					"whitekeycolor" : [ 1.0, 1.0, 1.0, 1.0 ]
				}

			}
, 			{
				"box" : 				{
					"fontname" : "Arial",
					"fontsize" : 12.0,
					"id" : "obj-12",
					"maxclass" : "comment",
					"numinlets" : 1,
					"numoutlets" : 0,
					"patching_rect" : [ 133.0, 42.0, 92.0, 20.0 ],
					"presentation" : 1,
					"presentation_rect" : [ 135.0, 78.0, 72.0, 20.0 ],
					"text" : "click to start"
				}

			}
, 			{
				"box" : 				{
					"fontname" : "Arial",
					"fontsize" : 13.0,
					"id" : "obj-13",
					"maxclass" : "comment",
					"numinlets" : 1,
					"numoutlets" : 0,
					"patching_rect" : [ 451.0, 52.0, 140.0, 21.0 ],
					"presentation" : 1,
					"presentation_rect" : [ 451.0, 52.0, 140.0, 21.0 ],
					"text" : "INSTRUCTIONS"
				}

			}
, 			{
				"box" : 				{
					"fontname" : "Arial",
					"fontsize" : 13.0,
					"id" : "obj-14",
					"linecount" : 3,
					"maxclass" : "comment",
					"numinlets" : 1,
					"numoutlets" : 0,
					"patching_rect" : [ 430.0, 80.0, 189.0, 50.0 ],
					"presentation" : 1,
					"presentation_linecount" : 3,
					"presentation_rect" : [ 430.0, 80.0, 189.0, 50.0 ],
					"text" : "1. Select a tune by clicking on either \"refer tune1.txt\" or \"refer tune2.txt.\""
				}

			}
, 			{
				"box" : 				{
					"fontname" : "Arial",
					"fontsize" : 12.0,
					"id" : "obj-15",
					"maxclass" : "newobj",
					"numinlets" : 3,
					"numoutlets" : 3,
					"outlettype" : [ "bang", "bang", "" ],
					"patching_rect" : [ 55.0, 111.0, 63.0, 22.0 ],
					"presentation" : 1,
					"presentation_rect" : [ 138.0, 187.0, 63.0, 22.0 ],
					"text" : "select 1 0"
				}

			}
, 			{
				"box" : 				{
					"bgcolor" : [ 0.866666666666667, 0.866666666666667, 0.866666666666667, 1.0 ],
					"fontname" : "Arial",
					"fontsize" : 12.0,
					"id" : "obj-16",
					"maxclass" : "number",
					"numinlets" : 1,
					"numoutlets" : 2,
					"outlettype" : [ "", "bang" ],
					"parameter_enable" : 0,
					"patching_rect" : [ 209.333333333333343, 277.0, 38.0, 22.0 ],
					"presentation" : 1,
					"presentation_rect" : [ 187.0, 206.0, 38.0, 22.0 ],
					"textcolor" : [ 0.0, 0.0, 0.0, 1.0 ],
					"triscale" : 0.9
				}

			}
, 			{
				"box" : 				{
					"fontname" : "Arial",
					"fontsize" : 12.0,
					"id" : "obj-17",
					"maxclass" : "message",
					"numinlets" : 2,
					"numoutlets" : 1,
					"outlettype" : [ "" ],
					"patching_rect" : [ 89.166666666666671, 347.0, 18.0, 22.0 ],
					"presentation" : 1,
					"presentation_rect" : [ 166.0, 206.0, 18.0, 22.0 ],
					"text" : "0"
				}

			}
, 			{
				"box" : 				{
					"fontname" : "Arial",
					"fontsize" : 12.0,
					"id" : "obj-18",
					"maxclass" : "newobj",
					"numinlets" : 1,
					"numoutlets" : 2,
					"outlettype" : [ "int", "bang" ],
					"patching_rect" : [ 55.0, 142.0, 33.0, 22.0 ],
					"presentation" : 1,
					"presentation_rect" : [ 138.0, 206.0, 33.0, 22.0 ],
					"text" : "t i b"
				}

			}
, 			{
				"box" : 				{
					"fontname" : "Arial",
					"fontsize" : 12.0,
					"id" : "obj-19",
					"maxclass" : "message",
					"numinlets" : 2,
					"numoutlets" : 1,
					"outlettype" : [ "" ],
					"patching_rect" : [ 209.333333333333343, 202.0, 41.0, 22.0 ],
					"presentation" : 1,
					"presentation_rect" : [ 189.0, 187.0, 41.0, 22.0 ],
					"text" : "length"
				}

			}
, 			{
				"box" : 				{
					"fontname" : "Arial",
					"fontsize" : 12.0,
					"id" : "obj-20",
					"maxclass" : "newobj",
					"numinlets" : 1,
					"numoutlets" : 2,
					"outlettype" : [ "", "" ],
					"patching_rect" : [ 209.333333333333343, 235.0, 33.0, 22.0 ],
					"presentation" : 1,
					"presentation_rect" : [ 189.0, 205.0, 33.0, 22.0 ],
					"text" : "grab"
				}

			}
, 			{
				"box" : 				{
					"fontname" : "Arial",
					"fontsize" : 12.0,
					"id" : "obj-21",
					"maxclass" : "newobj",
					"numinlets" : 2,
					"numoutlets" : 2,
					"outlettype" : [ "bang", "" ],
					"patching_rect" : [ 86.666666666666671, 310.0, 141.666666666666657, 22.0 ],
					"presentation" : 1,
					"presentation_rect" : [ 90.0, 207.0, 59.0, 22.0 ],
					"text" : "select 13"
				}

			}
, 			{
				"box" : 				{
					"fontname" : "Arial",
					"fontsize" : 12.0,
					"id" : "obj-22",
					"maxclass" : "newobj",
					"numinlets" : 2,
					"numoutlets" : 1,
					"outlettype" : [ "bang" ],
					"patching_rect" : [ 69.0, 206.0, 65.0, 22.0 ],
					"presentation" : 1,
					"presentation_rect" : [ 87.0, 186.0, 65.0, 22.0 ],
					"text" : "metro 500"
				}

			}
, 			{
				"box" : 				{
					"id" : "obj-23",
					"maxclass" : "button",
					"numinlets" : 1,
					"numoutlets" : 1,
					"outlettype" : [ "bang" ],
					"parameter_enable" : 0,
					"patching_rect" : [ 35.0, 197.0, 15.0, 15.0 ],
					"presentation" : 1,
					"presentation_rect" : [ 65.0, 185.0, 15.0, 15.0 ]
				}

			}
, 			{
				"box" : 				{
					"coll_data" : 					{
						"count" : 8,
						"data" : [ 							{
								"key" : 1,
								"value" : [ 76, 100, 500 ]
							}
, 							{
								"key" : 2,
								"value" : [ 75, 100, 500 ]
							}
, 							{
								"key" : 3,
								"value" : [ 76, 100, 500 ]
							}
, 							{
								"key" : 4,
								"value" : [ 75, 100, 500 ]
							}
, 							{
								"key" : 5,
								"value" : [ 76, 100, 500 ]
							}
, 							{
								"key" : 6,
								"value" : [ 71, 100, 500 ]
							}
, 							{
								"key" : 7,
								"value" : [ 74, 100, 500 ]
							}
, 							{
								"key" : 8,
								"value" : [ 72, 100, 500 ]
							}
 ]
					}
,
					"fontname" : "Arial",
					"fontsize" : 12.0,
					"id" : "obj-24",
					"maxclass" : "newobj",
					"numinlets" : 1,
					"numoutlets" : 4,
					"outlettype" : [ "", "", "", "" ],
					"patching_rect" : [ 69.0, 277.0, 72.0, 22.0 ],
					"presentation" : 1,
					"presentation_rect" : [ 80.0, 202.0, 72.0, 22.0 ],
					"saved_object_attributes" : 					{
						"embed" : 1,
						"precision" : 6
					}
,
					"text" : "coll furelise"
				}

			}
, 			{
				"box" : 				{
					"fontname" : "Arial",
					"fontsize" : 13.0,
					"id" : "obj-25",
					"maxclass" : "comment",
					"numinlets" : 1,
					"numoutlets" : 0,
					"patching_rect" : [ 242.0, 23.0, 191.0, 21.0 ],
					"presentation" : 1,
					"presentation_rect" : [ 242.0, 23.0, 191.0, 21.0 ],
					"text" : "BETTING PARADIGM DEMO"
				}

			}
 ],
		"lines" : [ 			{
				"patchline" : 				{
					"destination" : [ "obj-9", 1 ],
					"source" : [ "obj-10", 1 ]
				}

			}
, 			{
				"patchline" : 				{
					"destination" : [ "obj-9", 0 ],
					"source" : [ "obj-10", 0 ]
				}

			}
, 			{
				"patchline" : 				{
					"destination" : [ "obj-10", 0 ],
					"source" : [ "obj-11", 0 ]
				}

			}
, 			{
				"patchline" : 				{
					"destination" : [ "obj-18", 0 ],
					"source" : [ "obj-15", 0 ]
				}

			}
, 			{
				"patchline" : 				{
					"destination" : [ "obj-21", 1 ],
					"source" : [ "obj-16", 0 ]
				}

			}
, 			{
				"patchline" : 				{
					"destination" : [ "obj-22", 0 ],
					"midpoints" : [ 98.666666666666671, 388.0, 268.416666666666686, 388.0, 268.416666666666686, 182.0, 78.5, 182.0 ],
					"order" : 0,
					"source" : [ "obj-17", 0 ]
				}

			}
, 			{
				"patchline" : 				{
					"destination" : [ "obj-8", 0 ],
					"midpoints" : [ 98.666666666666671, 388.0, 298.416666666666686, 388.0, 298.416666666666686, 64.0, 64.5, 64.0 ],
					"order" : 1,
					"source" : [ "obj-17", 0 ]
				}

			}
, 			{
				"patchline" : 				{
					"destination" : [ "obj-19", 0 ],
					"midpoints" : [ 64.5, 172.5, 218.833333333333343, 172.5 ],
					"source" : [ "obj-18", 0 ]
				}

			}
, 			{
				"patchline" : 				{
					"destination" : [ "obj-22", 0 ],
					"source" : [ "obj-18", 1 ]
				}

			}
, 			{
				"patchline" : 				{
					"destination" : [ "obj-20", 0 ],
					"source" : [ "obj-19", 0 ]
				}

			}
, 			{
				"patchline" : 				{
					"destination" : [ "obj-16", 0 ],
					"source" : [ "obj-20", 0 ]
				}

			}
, 			{
				"patchline" : 				{
					"destination" : [ "obj-24", 0 ],
					"source" : [ "obj-20", 1 ]
				}

			}
, 			{
				"patchline" : 				{
					"destination" : [ "obj-17", 0 ],
					"source" : [ "obj-21", 0 ]
				}

			}
, 			{
				"patchline" : 				{
					"destination" : [ "obj-24", 0 ],
					"source" : [ "obj-22", 0 ]
				}

			}
, 			{
				"patchline" : 				{
					"destination" : [ "obj-24", 0 ],
					"source" : [ "obj-23", 0 ]
				}

			}
, 			{
				"patchline" : 				{
					"destination" : [ "obj-11", 0 ],
					"source" : [ "obj-24", 0 ]
				}

			}
, 			{
				"patchline" : 				{
					"destination" : [ "obj-21", 0 ],
					"source" : [ "obj-24", 1 ]
				}

			}
, 			{
				"patchline" : 				{
					"destination" : [ "obj-24", 0 ],
					"source" : [ "obj-6", 0 ]
				}

			}
, 			{
				"patchline" : 				{
					"destination" : [ "obj-24", 0 ],
					"source" : [ "obj-7", 0 ]
				}

			}
, 			{
				"patchline" : 				{
					"destination" : [ "obj-15", 0 ],
					"source" : [ "obj-8", 0 ]
				}

			}
 ],
		"dependency_cache" : [ 			{
				"name" : "tune1.txt",
				"bootpath" : "~/Dropbox/MUTOR/MUTOR 1.0/Units CNMAT/unit10",
				"patcherrelativepath" : "../../../../../Dropbox/MUTOR/MUTOR 1.0/Units CNMAT/unit10",
				"type" : "TEXT",
				"implicit" : 1
			}
, 			{
				"name" : "tune2.txt",
				"bootpath" : "~/Dropbox/MUTOR/MUTOR 1.0/Units CNMAT/unit10",
				"patcherrelativepath" : "../../../../../Dropbox/MUTOR/MUTOR 1.0/Units CNMAT/unit10",
				"type" : "TEXT",
				"implicit" : 1
			}
 ],
		"autosave" : 0
	}

}
